<svg xmlns="http://www.w3.org/2000/svg" xmlns:xlink="http://www.w3.org/1999/xlink">

  <symbol id="medium" fill-rule="evenodd" clip-rule="evenodd" stroke-linejoin="round" stroke-miterlimit="1.414">
    <path d="M72.2009141,1.42108547e-14 C112.076502,1.42108547e-14 144.399375,32.5485469 144.399375,72.6964154 C144.399375,112.844284 112.074049,145.390378 72.2009141,145.390378 C32.327779,145.390378 0,112.844284 0,72.6964154 C0,32.5485469 32.325326,1.42108547e-14 72.2009141,1.42108547e-14 Z M187.500628,4.25836743 C207.438422,4.25836743 223.601085,34.8960455 223.601085,72.6964154 L223.603538,72.6964154 C223.603538,110.486973 207.440875,141.134463 187.503081,141.134463 C167.565287,141.134463 151.402624,110.486973 151.402624,72.6964154 C151.402624,34.9058574 167.562834,4.25836743 187.500628,4.25836743 Z M243.303393,11.3867175 C250.314,11.3867175 256,38.835526 256,72.6964154 C256,106.547493 250.316453,134.006113 243.303393,134.006113 C236.290333,134.006113 230.609239,106.554852 230.609239,72.6964154 C230.609239,38.837979 236.292786,11.3867175 243.303393,11.3867175 Z" fill-rule="nonzero"></path>
  </symbol>

  <symbol id="devto" fill-rule="evenodd" clip-rule="evenodd" stroke-linejoin="round" stroke-miterlimit="1.414">
    <path fill-rule="nonzero" opacity="1.000000" stroke="none"
      d="
M62.000000,5.001812
	C71.485847,5.002175 80.472015,4.957407 89.457436,5.019605
	C94.963211,5.057717 96.964020,7.040485 96.977448,12.562813
	C97.023567,31.532829 97.023979,50.503098 96.977066,69.473106
	C96.963478,74.969513 94.948441,76.969971 89.419975,76.978325
	C63.793716,77.017059 38.167339,77.018517 12.541086,76.979553
	C7.037885,76.971191 5.033958,74.956306 5.020592,69.437119
	C4.974650,50.467106 4.973929,31.496834 5.021079,12.526823
	C5.034737,7.031604 7.051033,5.036623 12.577186,5.020150
	C28.884665,4.971539 45.192379,5.002181 62.000000,5.001812
M29.093344,25.556698
	C26.516294,25.556698 23.939245,25.556698 21.442463,25.556698
	C21.442463,36.433041 21.442463,46.514656 21.442463,57.020714
	C24.329863,57.020714 26.952911,57.078915 29.572552,57.009132
	C35.886150,56.840958 39.016594,53.735580 39.151623,47.440960
	C39.237160,43.453293 39.210938,39.461727 39.158241,35.472923
	C39.071880,28.936226 36.716198,26.436251 29.093344,25.556698
M67.207352,30.284431
	C66.899567,25.472750 64.241135,24.730400 59.943035,26.120478
	C62.306480,35.001266 64.432716,43.717087 67.057716,52.280010
	C67.625641,54.132618 69.762337,56.061451 71.617233,56.727364
	C72.544731,57.060341 75.341705,54.890827 75.794235,53.398624
	C78.531189,44.373692 80.835045,35.217419 83.375038,25.765125
	C80.974419,25.765125 79.188187,25.765125 77.225815,25.765125
	C75.433548,32.413979 73.668304,38.962574 71.581924,46.702503
	C69.977531,40.658203 68.703888,35.859924 67.207352,30.284431
M52.472794,57.010094
	C54.035561,57.010094 55.598328,57.010094 57.482094,57.010094
	C57.268963,54.672451 57.127163,53.117149 56.937576,51.037701
	C53.476353,51.037701 50.429489,51.037701 47.579052,51.037701
	C47.579052,48.398727 47.579052,46.336937 47.579052,44.292175
	C49.689510,44.088570 51.433929,43.920280 53.481979,43.722694
	C53.349873,41.793949 53.243080,40.234810 53.142506,38.766495
	C50.925594,38.506916 49.189339,38.303616 47.554455,38.112186
	C47.554455,35.636978 47.554455,33.572010 47.554455,31.044064
	C50.967068,31.044064 54.047798,31.044064 57.415695,31.044064
	C57.277603,28.982243 57.172661,27.415333 57.049496,25.576351
	C53.334682,25.576351 50.027199,25.633261 46.722534,25.560951
	C43.145844,25.482691 41.598827,27.188597 41.635468,30.716303
	C41.704483,37.361221 41.824467,44.013290 41.594967,50.651035
	C41.431736,55.372051 43.253296,57.518536 48.027241,57.027294
	C49.178028,56.908875 50.351406,57.009991 52.472794,57.010094
z"/>
    <path fill="#F0F0F0" opacity="1.000000" stroke="none"
      d="
M29.513077,25.558311
	C36.716198,26.436251 39.071880,28.936226 39.158241,35.472923
	C39.210938,39.461727 39.237160,43.453293 39.151623,47.440960
	C39.016594,53.735580 35.886150,56.840958 29.572552,57.009132
	C26.952911,57.078915 24.329863,57.020714 21.442463,57.020714
	C21.442463,46.514656 21.442463,36.433041 21.442463,25.556698
	C23.939245,25.556698 26.516294,25.556698 29.513077,25.558311
M32.575726,50.346386
	C32.920208,45.796593 33.254932,41.246033 33.611855,36.697216
	C33.985039,31.941065 31.658497,30.519001 27.159298,31.425596
	C27.159298,38.073196 27.159298,44.586887 27.159298,51.471581
	C28.960711,51.245319 30.408482,51.063477 32.575726,50.346386
z"/>
    <path fill="#F0F0F0" opacity="1.000000" stroke="none"
      d="
M67.318794,30.673038
	C68.703888,35.859924 69.977531,40.658203 71.581924,46.702503
	C73.668304,38.962574 75.433548,32.413979 77.225815,25.765125
	C79.188187,25.765125 80.974419,25.765125 83.375038,25.765125
	C80.835045,35.217419 78.531189,44.373692 75.794235,53.398624
	C75.341705,54.890827 72.544731,57.060341 71.617233,56.727364
	C69.762337,56.061451 67.625641,54.132618 67.057716,52.280010
	C64.432716,43.717087 62.306480,35.001266 59.943035,26.120478
	C64.241135,24.730400 66.899567,25.472750 67.318794,30.673038
z"/>
    <path fill="#F5F5F5" opacity="1.000000" stroke="none"
      d="
M51.993591,57.010124
	C50.351406,57.009991 49.178028,56.908875 48.027241,57.027294
	C43.253296,57.518536 41.431736,55.372051 41.594967,50.651035
	C41.824467,44.013290 41.704483,37.361221 41.635468,30.716303
	C41.598827,27.188597 43.145844,25.482691 46.722534,25.560951
	C50.027199,25.633261 53.334682,25.576351 57.049496,25.576351
	C57.172661,27.415333 57.277603,28.982243 57.415695,31.044064
	C54.047798,31.044064 50.967068,31.044064 47.554455,31.044064
	C47.554455,33.572010 47.554455,35.636978 47.554455,38.112186
	C49.189339,38.303616 50.925594,38.506916 53.142506,38.766495
	C53.243080,40.234810 53.349873,41.793949 53.481979,43.722694
	C51.433929,43.920280 49.689510,44.088570 47.579052,44.292175
	C47.579052,46.336937 47.579052,48.398727 47.579052,51.037701
	C50.429489,51.037701 53.476353,51.037701 56.937576,51.037701
	C57.127163,53.117149 57.268963,54.672451 57.482094,57.010094
	C55.598328,57.010094 54.035561,57.010094 51.993591,57.010124
z"/>
    <path fill="#131313" opacity="1.000000" stroke="none"
      d="
M32.215988,50.614010
	C30.408482,51.063477 28.960711,51.245319 27.159298,51.471581
	C27.159298,44.586887 27.159298,38.073196 27.159298,31.425596
	C31.658497,30.519001 33.985039,31.941065 33.611855,36.697216
	C33.254932,41.246033 32.920208,45.796593 32.215988,50.614010
z"/>
  </symbol>

</svg>